<svg width="125" height="34" viewBox="0 0 125 34" fill="none" xmlns="http://www.w3.org/2000/svg">
<path fill-rule="evenodd" clip-rule="evenodd" d="M125 9.86066C123.82 8.95818 122.725 7.97909 121.63 7C117.717 3.5 113.804 0 105.978 0C98.1522 0 94.2391 3.5 90.3261 7C86.413 10.5 82.5 14 74.6739 14C66.8478 14 62.9348 10.5 59.0217 7C55.1087 3.5 51.1957 0 43.3696 0C35.8145 0 32.0103 3.45088 28.1793 6.92605C24.2941 10.4505 20.3812 14 12.5 14C6.72478 14 3.08045 12.094 0 9.68859V34H125V9.86066Z" fill="white"/>
</svg>
