<svg width="1126" height="34" viewBox="0 0 1126 34" fill="none" xmlns="http://www.w3.org/2000/svg">
<path d="M1094.41 0C1109.96 0 1110.07 14 1125.61 14V34H0.5V14C16.1522 14 16.1522 0 31.3696 0C47.0217 0 47.0217 14 62.6739 14C78.3261 14 78.3261 0 93.9783 0C109.63 0 109.63 14 125.283 14C140.935 14 140.935 0 156.587 0C172.239 0 172.239 14 187.891 14C203.435 14 203.435 0 219.087 0C234.739 0 234.739 14 250.391 14C266.043 14 266.043 0 281.696 0C297.348 0 297.348 14 313 14C328.652 14 328.652 0 344.304 0C359.956 0 359.957 14 375.609 14C391.261 14 391.261 0 406.913 0C422.565 0 422.565 14 438.217 14C453.87 14 453.87 0 469.522 0C485.065 0 485.065 14 500.717 14C516.261 14 516.261 0 531.913 0C547.457 0 547.456 14 563.109 14C578.652 14 578.652 0 594.304 0C609.956 0 609.956 14 625.609 14C641.152 14 641.152 0 656.804 0C672.348 0 672.348 14 688 14C703.652 14 703.87 0 719.413 0C734.956 0 734.956 14 750.609 14C766.152 14 766.152 0 781.804 0C797.456 0 797.456 14 813.109 14C828.652 14 828.652 0 844.304 0C859.848 0 860.065 14 875.609 14C891.152 14 891.152 0 906.804 0C922.348 0 922.783 14 938.326 14C953.87 14 953.87 0 969.522 0C985.065 0 985.065 14 1000.72 14C1016.26 14 1016.26 0 1031.91 0C1047.57 0 1047.57 14 1063.22 14C1078.76 14 1078.87 0 1094.41 0Z" fill="white"/>
</svg>
