<svg xmlns="http://www.w3.org/2000/svg" viewBox="0 0 25 24" id="phone-icon"><path d="M17.4395 24h-1.1089c-4.9395-.5926-8.5685-2.8642-11.18947-5.7283C2.52016 15.4075.403226 11.7532 0 6.7162V5.33349c.100806-.88888.504032-1.48147 1.10887-2.07406.60484-.69135 1.6129-1.48147 2.52016-1.58023.70565 0 1.81452.49382 2.21774 1.08641.40323.49382.60484 1.58023.80646 2.37035.20161.88888.60483 1.97529.50403 2.76541-.20161 1.18518-1.81452 1.679-2.21774 2.56793 1.6129 3.6542 4.13306 6.4197 7.56048 8.1974.8065-.4938 1.6129-1.8765 2.8226-1.8765.4032 0 1.008.1975 1.4113.2963.504.0987.9072.2963 1.3105.4938.7056.2963 2.0161.5926 2.4193 1.1852s.7057 1.5802.6048 2.1728c-.3024 1.2839-2.4193 2.6666-3.629 3.0617ZM12.6008 1.48147c5.9476 0 10.8871 4.7407 10.8871 10.66663H25C25 5.43205 19.4556 0 12.6008 0v1.48147Z"/><path d="M12.6008 9.18506v1.58024c.8065 0 1.4113.5926 1.4113 1.3827h1.6129c0-1.5802-1.3105-2.96294-3.0242-2.96294ZM12.6008 6.12356c3.3266 0 6.1492 2.66665 6.1492 6.02464h1.6129c0-4.14811-3.4274-7.50611-7.6613-7.50611v1.48147h-.1008Z"/></svg>
